# xmcd
#
# Track frame offsets:
#	150
#	27120
#	45715
#	70380
#	87130
#	108103
#	132163
#	152523
#	170023
#
# Disc length: 2574 seconds
#
# Revision: 2
# Processed by: cddbd v1.4PL0 Copyright (c) Steve Scherf et al.
# Submitted via: CDmax 1.8
#
DISCID=6a0a0c09
DTITLE=Glenn Jones (Correct Track List) - Glenn Jones
DYEAR=1987
DGENRE=R&b
TTITLE0=We've Only Just Begun (The Romance Is Not Over)
TTITLE1=It Must Be Love
TTITLE2=At Last
TTITLE3=That Night Mood
TTITLE4=Oh Girl
TTITLE5=Living in the Limelight
TTITLE6=It's All in the Game
TTITLE7=All I Need to Know
TTITLE8=I Love You
EXTD=
EXTT0=
EXTT1=
EXTT2=
EXTT3=
EXTT4=
EXTT5=
EXTT6=
EXTT7=
EXTT8=
PLAYORDER=
